PathFileType	4	(X/Y/Z)	D:\luciana\demolition.trc
DataRate	CameraRate	NumFrames	NumMarkers	Units	OrigDataRate	OrigDataStartFrame	OrigNumFrames
250.00	250.00	15	18	mm	250.00	1	1806
Frame#	Time	pelvisR			Trunk1			Trunk2			Trunk3			C7			shoulder			upperArm1			upperArm2			upperArm3			elbow			forearm1			forearm2			forearm3			wrist1			wrist2			wrist3			Object			Hand			
		X1	Y1	Z1	X2	Y2	Z2	X3	Y3	Z3	X4	Y4	Z4	X5	Y5	Z5	X6	Y6	Z6	X7	Y7	Z7	X8	Y8	Z8	X9	Y9	Z9	X10	Y10	Z10	X11	Y11	Z11	X12	Y12	Z12	X13	Y13	Z13	X14	Y14	Z14	X15	Y15	Z15	X16	Y16	Z16	X17	Y17	Z17	X18	Y18	Z18	

0	0.000000	1705.864429	656.617463	694.828331	1485.308528	875.377774	606.678069	1548.535585	823.749244	603.769124	1459.498763	783.754170	604.214668	1547.571063	1135.959029	785.687387	1722.794056	1063.007593	753.841043	1816.091180	914.738119	743.017077	1845.244884	910.031676	820.032120	1783.351421	890.319288	859.431267	1840.204000	778.389573	821.192861	1913.445473	723.408937	822.953999	1863.795996	690.189481	767.173231	1916.435480	796.493292	804.770112	2031.312227	715.100586	739.495575	1992.500663	690.098166	673.808336	2019.852400	788.909674	741.327822	2108.608246	762.912989	639.458179	2096.190214	715.019584	647.112191	
1	0.004000	1705.861807	656.605065	694.846511	1485.284925	875.365078	606.717229	1548.522234	823.740423	603.790581	1459.519267	783.753872	604.220331	1547.581434	1135.946155	785.695791	1722.794533	1063.000083	753.850341	1816.091418	914.735198	743.009806	1845.242739	910.027027	820.019484	1783.368826	890.315890	859.438598	1840.194106	778.377652	821.197808	1913.429499	723.390937	822.954237	1863.789082	690.177560	767.178178	1916.446209	796.503782	804.785073	2031.316280	715.090394	739.502311	1992.520452	690.096140	673.809648	2019.847631	788.900137	741.335630	2108.609676	762.907028	639.473557	2096.191406	715.011835	647.097826	
2	0.008000	1705.861092	656.601787	694.859385	1485.269547	875.352502	606.724024	1548.527479	823.753357	603.796899	1459.525824	783.755422	604.218960	1547.587872	1135.945797	785.699427	1722.781181	1062.985420	753.856421	1816.096544	914.732695	743.025184	1845.241547	910.017908	820.017099	1783.370256	890.315711	859.435320	1840.181112	778.364182	821.185529	1913.431883	723.396957	822.965860	1863.780379	690.175891	767.186880	1916.454792	796.512723	804.791391	2031.323910	715.090871	739.510059	1992.524505	690.096259	673.809052	2019.845486	788.887858	741.335392	2108.611345	762.902737	639.482379	2096.195698	714.995563	647.095501	
3	0.012000	1705.856800	656.604171	694.848895	1485.275507	875.331819	606.713057	1548.527598	823.751450	603.801191	1459.524393	783.744276	604.207635	1547.595739	1135.937572	785.695732	1722.779870	1062.976003	753.840566	1816.099286	914.735854	743.028522	1845.237851	910.011888	820.010126	1783.370495	890.318274	859.443128	1839.970112	778.100312	820.886791	1913.430691	723.392963	822.972536	1863.771081	690.175176	767.180920	1916.452408	796.509147	804.795027	2031.320095	715.085983	739.517808	1992.518187	690.078557	673.808932	2019.844532	788.827300	741.311967	2108.614922	762.898862	639.490545	2096.216679	714.999080	647.127748	
4	0.016000	1705.855966	656.593442	694.859385	1485.290766	875.332952	606.693208	1548.534036	823.746562	603.804171	1459.521532	783.729553	604.216039	1547.592998	1135.944486	785.688698	1722.796440	1062.969923	753.851533	1816.101313	914.726496	743.026972	1845.227480	910.002947	820.001125	1783.360004	890.307307	859.454155	1839.563131	777.556121	820.311725	1913.416147	723.357201	822.977304	1863.763928	690.166593	767.175913	1916.438699	796.499610	804.785848	2031.320572	715.080857	739.514887	1992.512941	690.069139	673.795998	2019.849539	788.652301	741.226673	2108.610392	762.890697	639.496028	2096.219778	715.007305	647.136390	
5	0.020000	1705.854297	656.600416	694.860458	1485.250950	875.329494	606.715679	1548.532009	823.747993	603.816926	1459.520817	783.732951	604.228199	1547.577858	1135.948539	785.699189	1722.795486	1062.973976	753.864348	1816.100359	914.716005	743.020892	1845.197439	909.999669	819.976628	1783.359170	890.300095	859.454751	1839.450002	777.404845	820.147812	1913.414240	723.346829	822.970510	1863.758802	690.155268	767.184734	1916.426539	796.485186	804.799080	2031.313181	715.071619	739.516735	1992.497325	690.055788	673.786998	2019.846916	788.396239	741.120219	2108.614683	762.880623	639.499068	2096.210718	715.001822	647.144914	
6	0.024000	1705.849648	656.599939	694.857121	1485.240579	875.322580	606.719911	1548.540950	823.745012	603.819728	1459.526896	783.726454	604.232252	1547.570348	1135.955811	785.703301	1722.786427	1062.978745	753.858149	1816.090584	914.704204	743.023098	1845.040202	910.021305	819.800496	1783.357859	890.291274	859.457493	1839.422107	777.364731	820.104599	1913.416386	723.327041	822.967410	1863.752007	690.152705	767.178535	1916.421175	796.478927	804.806530	2031.305552	715.056300	739.519596	1992.510557	690.070808	673.840642	2019.822836	788.341522	741.087794	2108.616829	762.875199	639.506340	2096.194744	714.965940	647.128224	
7	0.028000	1705.848932	656.594515	694.846153	1485.248923	875.333309	606.700301	1548.540235	823.747098	603.820801	1459.520698	783.718109	604.242265	1547.566175	1135.959983	785.692692	1722.786546	1062.973022	753.859937	1816.073775	914.705753	743.025661	1844.694972	910.071909	819.388390	1783.351541	890.291154	859.464049	1839.409232	777.362049	820.112228	1913.422227	723.312795	822.966397	1863.748550	690.146267	767.180681	1916.403770	796.466529	804.794729	2031.299114	715.055943	739.527166	1992.510200	690.060794	673.849761	2019.796133	788.547814	741.167068	2108.608246	762.867808	639.497697	2096.177340	714.941263	647.125483	
8	0.032000	1705.848932	656.602383	694.836855	1485.227704	875.335157	606.681943	1548.524022	823.735356	603.813648	1459.520817	783.709407	604.240775	1547.559023	1135.959744	785.686076	1722.784519	1062.965870	753.863215	1816.069841	914.703965	743.019342	1844.626427	909.963489	819.283247	1783.360124	890.289903	859.451354	1839.395523	777.353108	820.105314	1913.441420	723.298192	822.973132	1863.741994	690.139055	767.178655	1916.394711	796.475470	804.787338	2031.285286	715.053022	739.528835	1992.512941	690.042377	673.825026	2019.783497	788.585961	741.189837	2108.593464	762.852311	639.491916	2096.195459	714.946210	647.175193	
9	0.036000	1705.845118	656.603336	694.852829	1485.235810	875.316143	606.691003	1548.522353	823.721170	603.809714	1459.530115	783.702612	604.233027	1547.574997	1135.958552	785.687089	1722.773552	1062.970519	753.859401	1816.062093	914.694905	743.013501	1845.081687	909.677088	819.779754	1783.341050	890.284538	859.453797	1839.405537	777.345538	820.129335	1913.422823	723.197520	822.917461	1863.723278	690.135658	767.180800	1916.380167	796.472371	804.792047	2031.274319	715.040863	739.525259	1992.507219	690.015256	673.810959	2019.777775	788.592577	741.196275	2108.582735	762.833953	639.493763	2096.189022	714.945495	647.182107	
10	0.040000	1705.836296	656.596184	694.850087	1485.221386	875.293732	606.697798	1548.525095	823.706269	603.815913	1459.522009	783.702433	604.230881	1547.561407	1135.954738	785.688639	1722.769737	1062.978745	753.861308	1816.057682	914.690852	743.011296	1845.193982	909.600139	819.901228	1783.325434	890.294492	859.459221	1839.395046	777.348757	820.143580	1913.369179	723.016143	822.802424	1863.715529	690.125227	767.197132	1916.375995	796.470702	804.790139	2031.263351	715.026736	739.521384	1992.489338	690.023243	673.858523	2019.766331	788.580596	741.191864	2108.559608	762.815416	639.488816	2096.154213	714.941144	647.153616	
11	0.044000	1705.831528	656.601012	694.836378	1485.229492	875.289083	606.692255	1548.517227	823.696733	603.827238	1459.526420	783.693492	604.236662	1547.536850	1135.950685	785.673738	1722.765088	1062.975168	753.861010	1816.038132	914.695740	743.010223	1845.220923	909.580588	819.930077	1783.309937	890.290916	859.445632	1839.389801	777.357459	820.155978	1913.368106	722.985744	822.796106	1863.701224	690.119386	767.192602	1916.372299	796.468019	804.785490	2031.249762	715.012014	739.526868	1992.464304	690.020621	673.869848	2019.752741	788.568974	741.184294	2108.552217	762.803197	639.478207	2096.146584	714.924037	647.157311	
12	0.048000	1705.826283	656.613529	694.830060	1485.242009	875.292838	606.673717	1548.510551	823.709011	603.832483	1459.519267	783.693373	604.243875	1547.544241	1135.945797	785.667300	1722.763181	1062.961340	753.858328	1816.015244	914.689660	742.999077	1845.212102	909.565866	819.931805	1783.301353	890.286744	859.442651	1839.373112	777.350903	820.135474	1913.360953	722.977102	822.802603	1863.684773	690.116882	767.187059	1916.353941	796.458483	804.785967	2031.238794	715.003014	739.528179	1992.460489	690.013468	673.861623	2019.740820	788.558781	741.181016	2108.539104	762.794733	639.473736	2096.158028	714.928448	647.180259	
13	0.052000	1705.818295	656.623602	694.824457	1485.236049	875.284553	606.655836	1548.510790	823.706269	603.824079	1459.492803	783.692360	604.252219	1547.553658	1135.952830	785.658836	1722.751856	1062.960625	753.841996	1816.009760	914.685488	742.973268	1845.205903	909.560919	819.929957	1783.293962	890.284538	859.442830	1839.363575	777.348757	820.151329	1913.346887	722.987473	822.809875	1863.669515	690.114677	767.194033	1916.350365	796.461105	804.792821	2031.226397	714.988828	739.524722	1992.449045	690.027237	673.874378	2019.723654	788.560152	741.181493	2108.523369	762.784362	639.468729	2096.144676	714.922786	647.170782	
14	0.056000	1705.818415	656.631649	694.843531	1485.246181	875.303030	606.650054	1548.508644	823.700726	603.815973	1459.492683	783.690035	604.260266	1547.553062	1135.960102	785.654545	1722.738028	1062.961698	753.825665	1815.990806	914.687216	742.966056	1845.202684	909.558535	819.931030	1783.286929	890.279591	859.442711	1839.350939	777.340114	820.144892	1913.338423	722.969949	822.799206	1863.650084	690.106869	767.191529	1916.345477	796.459675	804.780960	2031.216145	714.979649	739.515901	1992.434144	690.016150	673.890114	2019.711018	788.555384	741.194308	2108.506441	762.774825	639.466286	2096.111774	714.890540	647.139072	
